<svg width="27" height="31" viewBox="0 0 27 31" fill="none" xmlns="http://www.w3.org/2000/svg">
<mask id="mask0_146_3275" style="mask-type:alpha" maskUnits="userSpaceOnUse" x="0" y="7" width="27" height="24">
<path d="M7.61746 7.12695V10.3199V11.7248H19.4829V10.3199V7.12695H26.8989V30.1163H0.201538V7.12695H7.61746Z" fill="#C4C4C4"/>
</mask>
<g mask="url(#mask0_146_3275)">
<rect x="1.69324" y="8.51556" width="23.7141" height="20.2122" rx="2.25" stroke="#0A0B16" stroke-width="1.5"/>
</g>
<path d="M12.9348 20.5313C13.2277 20.8242 13.7025 20.8242 13.9954 20.5313L18.7684 15.7583C19.0613 15.4655 19.0613 14.9906 18.7684 14.6977C18.4755 14.4048 18.0006 14.4048 17.7077 14.6977L13.4651 18.9403L9.22245 14.6977C8.92955 14.4048 8.45468 14.4048 8.16179 14.6977C7.86889 14.9906 7.86889 15.4655 8.16179 15.7583L12.9348 20.5313ZM12.7151 0.689941L12.7151 20.001L14.2151 20.001L14.2151 0.689941L12.7151 0.689941Z" fill="#0A0B16"/>
</svg>
