<svg width="26" height="28" viewBox="0 0 26 28" fill="none" xmlns="http://www.w3.org/2000/svg">
<path d="M1 5.57416C1 5.02187 1.44772 4.57416 2 4.57416H24C24.5523 4.57416 25 5.02187 25 5.57416V7.28899H1V5.57416Z" stroke="#53545C" stroke-width="2"/>
<path d="M8.15015 2C8.15015 1.44771 8.59786 1 9.15015 1H16.8501C17.4024 1 17.8501 1.44771 17.8501 2V4.38838H8.15015V2Z" stroke="#53545C" stroke-width="2"/>
<path d="M4.25 7.44649H21.75V25C21.75 26.1046 20.8546 27 19.75 27H6.25C5.14543 27 4.25 26.1046 4.25 25V7.44649Z" stroke="#53545C" stroke-width="2"/>
<line x1="9.45007" y1="12.3303" x2="9.45007" y2="22.4335" stroke="#53545C" stroke-width="2"/>
<line x1="13.35" y1="12.3303" x2="13.35" y2="22.4335" stroke="#53545C" stroke-width="2"/>
<line x1="17.25" y1="12.3303" x2="17.25" y2="22.4335" stroke="#53545C" stroke-width="2"/>
</svg>
