<svg width="28" height="28" viewBox="0 0 28 28" fill="none" xmlns="http://www.w3.org/2000/svg">
<mask id="mask0_88_3452" style="mask-type:alpha" maskUnits="userSpaceOnUse" x="0" y="0" width="15" height="28">
<path d="M14.5433 0V28H0V0H14.5433Z" fill="#C4C4C4"/>
</mask>
<g mask="url(#mask0_88_3452)">
<rect x="2.5105" y="1.50745" width="16.0418" height="23.7313" rx="4" stroke="#F2EAA9" stroke-width="2"/>
</g>
<path d="M27.4787 14.7071C27.8692 14.3166 27.8692 13.6834 27.4787 13.2929L21.1148 6.92893C20.7242 6.53841 20.0911 6.53841 19.7005 6.92893C19.31 7.31946 19.31 7.95262 19.7005 8.34315L25.3574 14L19.7005 19.6569C19.31 20.0474 19.31 20.6805 19.7005 21.0711C20.0911 21.4616 20.7242 21.4616 21.1148 21.0711L27.4787 14.7071ZM8.77161 15H26.7716V13H8.77161V15Z" fill="#F2EAA9"/>
</svg>
